<?xml version="1.0" standalone="no"?>
<!DOCTYPE svg PUBLIC "-//W3C//DTD SVG 20010904//EN"
 "http://www.w3.org/TR/2001/REC-SVG-20010904/DTD/svg10.dtd">
<svg version="1.0" xmlns="http://www.w3.org/2000/svg"
 width="1234.000000pt" height="1234.000000pt" viewBox="0 0 1234.000000 1234.000000"
 preserveAspectRatio="xMidYMid meet">
<metadata>
Created by potrace 1.14, written by Peter Selinger 2001-2017
</metadata>
<g transform="translate(0.000000,1234.000000) scale(0.100000,-0.100000)"
fill="#000000" stroke="none">
<path d="M6229 10499 c-109 -11 -203 -35 -275 -69 -71 -34 -298 -209 -1314
-1014 -226 -178 -839 -668 -1145 -915 -719 -579 -1290 -1046 -1865 -1525 -112
-94 -276 -231 -365 -305 -88 -74 -187 -157 -220 -186 -33 -28 -152 -129 -265
-225 -365 -310 -586 -510 -563 -510 9 0 10 -7 2 -26 l-10 -27 28 18 c81 52
303 212 693 500 1234 911 2063 1508 2239 1611 157 92 374 159 608 189 100 13
189 16 360 13 329 -5 322 2 335 -302 4 -111 15 -309 23 -441 23 -368 22 -376
-42 -437 -15 -15 -136 -84 -268 -153 -132 -70 -276 -146 -320 -170 -81 -43
-631 -335 -805 -428 -52 -27 -122 -64 -155 -82 -89 -48 -151 -81 -585 -313
-1010 -539 -1020 -545 -997 -568 17 -17 121 22 512 191 857 370 1853 801 2416
1045 124 54 244 104 268 111 38 11 44 11 62 -8 16 -16 22 -40 29 -124 4 -57
40 -369 79 -694 113 -929 161 -1338 161 -1357 0 -40 18 -14 24 34 6 49 -146
3644 -159 3768 -14 125 -57 194 -143 224 -120 42 -338 45 -571 6 -68 -11 -125
-19 -127 -17 -2 1 0 8 4 14 12 18 1673 1124 1727 1150 72 33 135 31 177 -6 62
-54 74 -114 132 -668 68 -638 95 -1021 126 -1793 41 -1027 63 -1358 94 -1482
44 -175 115 -297 242 -419 148 -141 348 -242 608 -305 158 -38 1436 -175 2276
-244 864 -71 1600 -79 2120 -24 212 22 229 22 246 0 11 -16 14 -81 14 -352 0
-187 -4 -344 -10 -358 -15 -39 -50 -55 -166 -75 -307 -53 -492 -125 -614 -238
-102 -94 -164 -222 -158 -327 4 -66 22 -67 68 -1 19 28 69 84 110 125 116 117
224 165 538 240 l154 37 -6 -40 c-10 -62 -53 -142 -102 -191 -75 -73 -323
-181 -534 -231 -107 -25 -155 -43 -175 -65 -17 -19 -17 -20 21 -36 34 -15 51
-15 139 -4 225 27 456 77 608 129 l57 20 0 -36 c0 -110 -69 -440 -132 -627
-67 -201 -105 -253 -198 -275 -25 -6 -130 -17 -235 -26 -940 -74 -1762 -94
-3175 -75 -973 13 -1742 7 -1640 -12 375 -70 1509 -190 2205 -233 981 -60
2071 -58 2854 5 240 20 257 33 349 285 106 290 186 726 222 1220 18 235 24
1090 11 1415 -49 1211 -223 2440 -476 3367 -115 420 -184 595 -312 787 -71
107 -209 257 -308 336 -74 59 -228 153 -315 192 -268 122 -1023 396 -1495 542
-767 237 -1596 420 -2110 466 -127 12 -475 11 -586 -1z m901 -689 c1031 -49
2018 -289 3226 -786 451 -185 483 -209 608 -462 161 -324 258 -663 390 -1362
135 -709 247 -1618 273 -2198 7 -163 2 -181 -47 -207 -47 -25 -261 -36 -675
-37 -449 -1 -766 17 -1290 72 -577 62 -1617 210 -2201 314 -330 59 -421 92
-570 205 -165 124 -277 314 -289 494 -3 39 -12 401 -20 802 -18 898 -29 1218
-61 1870 -32 659 -55 910 -109 1165 -20 93 -19 118 3 123 9 2 87 5 172 6 85 2
157 5 159 7 8 7 210 4 431 -6z"/>
<path d="M6438 4063 c-2 -66 4 -120 24 -218 45 -217 88 -388 104 -413 30 -46
338 -170 636 -256 242 -71 459 -116 832 -172 85 -13 18 17 -182 82 -343 110
-702 251 -875 342 -97 50 -175 132 -225 234 -43 88 -97 268 -81 268 38 0 552
-147 633 -181 12 -4 75 -28 141 -53 392 -144 592 -305 694 -559 13 -32 26 -56
29 -53 2 3 -1 42 -8 87 -42 288 -182 484 -434 607 -117 57 -339 143 -491 191
-220 68 -696 181 -767 181 -27 0 -27 0 -30 -87z"/>
<path d="M3643 3929 c-106 -52 -220 -234 -303 -485 -69 -209 -80 -304 -80
-697 0 -225 4 -337 10 -327 5 8 10 33 10 55 0 59 28 264 51 380 29 142 80 292
145 423 89 180 168 242 303 242 134 -1 225 -88 347 -330 92 -185 153 -401 203
-721 17 -108 31 -202 31 -210 0 -9 5 -7 13 6 19 32 15 348 -6 480 -29 181 -76
410 -103 503 -96 330 -260 603 -406 676 -67 34 -154 36 -215 5z"/>
<path d="M8525 3350 c-14 -22 0 -130 27 -210 34 -102 71 -144 143 -165 87 -26
614 -41 943 -27 387 17 673 47 746 77 41 17 71 50 95 105 25 56 66 219 57 227
-3 3 -81 1 -173 -6 -469 -33 -1070 -33 -1608 -1 -204 12 -223 12 -230 0z"/>
</g>
</svg>
